<svg width="40" height="40" viewBox="0 0 40 40" fill="none" xmlns="http://www.w3.org/2000/svg">
<g id="Icon">
<path id="Vector" fill-rule="evenodd" clip-rule="evenodd" d="M13.332 36.6796C13.332 35.752 14.084 35 15.0116 35H24.1199C25.0475 35 25.7995 35.752 25.7995 36.6796C25.7995 37.6072 25.0475 38.3592 24.1199 38.3592H15.0116C14.084 38.3592 13.332 37.6072 13.332 36.6796Z" fill="url(#paint0_linear_457_3606)"/>
<path id="Vector_2" d="M32.6223 33.3332H7.3751C5.14217 33.3332 3.33203 31.4141 3.33203 29.0467V10.953C3.33203 8.58561 5.14217 6.6665 7.3751 6.6665H32.6223C34.8552 6.6665 36.6654 8.58561 36.6654 10.953V29.0467C36.6654 31.4141 34.8552 33.3332 32.6223 33.3332Z" fill="url(#paint1_linear_457_3606)"/>
<path id="Vector_3" fill-rule="evenodd" clip-rule="evenodd" d="M8.33203 26.7314C8.33203 25.8038 9.08401 25.0518 10.0116 25.0518H29.7038C30.6314 25.0518 31.3834 25.8038 31.3834 26.7314C31.3834 27.659 30.6314 28.411 29.7038 28.411H10.0116C9.08401 28.411 8.33203 27.659 8.33203 26.7314Z" fill="url(#paint2_linear_457_3606)"/>
<path id="Vector_4" fill-rule="evenodd" clip-rule="evenodd" d="M16.4961 20.039C16.4961 19.1114 17.2481 18.3594 18.1757 18.3594H28.1498C29.0775 18.3594 29.8294 19.1114 29.8294 20.039C29.8294 20.9666 29.0775 21.7185 28.1498 21.7185H18.1757C17.2481 21.7185 16.4961 20.9666 16.4961 20.039Z" fill="url(#paint3_linear_457_3606)"/>
<path id="Vector_5" fill-rule="evenodd" clip-rule="evenodd" d="M8.33203 20.039C8.33203 19.1114 9.08401 18.3594 10.0116 18.3594H12.3294C13.257 18.3594 14.009 19.1114 14.009 20.039C14.009 20.9666 13.257 21.7185 12.3294 21.7185H10.0116C9.08401 21.7185 8.33203 20.9666 8.33203 20.039Z" fill="url(#paint4_linear_457_3606)"/>
<path id="Vector_6" fill-rule="evenodd" clip-rule="evenodd" d="M18.1641 13.3461C18.1641 12.4185 18.916 11.6665 19.8436 11.6665H23.8152C24.7428 11.6665 25.4948 12.4185 25.4948 13.3461C25.4948 14.2737 24.7428 15.0257 23.8152 15.0257H19.8436C18.916 15.0257 18.1641 14.2737 18.1641 13.3461Z" fill="url(#paint5_linear_457_3606)"/>
<path id="Vector_7" fill-rule="evenodd" clip-rule="evenodd" d="M8.33203 13.3461C8.33203 12.4185 9.08401 11.6665 10.0116 11.6665H13.9832C14.9108 11.6665 15.6628 12.4185 15.6628 13.3461C15.6628 14.2737 14.9108 15.0257 13.9832 15.0257H10.0116C9.08401 15.0257 8.33203 14.2737 8.33203 13.3461Z" fill="url(#paint6_linear_457_3606)"/>
<path id="Vector_8" fill-rule="evenodd" clip-rule="evenodd" d="M15.8672 3.34658C15.8672 2.41897 16.6192 1.66699 17.5468 1.66699H22.3271C23.2547 1.66699 24.0067 2.41897 24.0067 3.34658C24.0067 4.27419 23.2547 5.02616 22.3271 5.02616H17.5468C16.6192 5.02616 15.8672 4.27419 15.8672 3.34658Z" fill="url(#paint7_linear_457_3606)"/>
</g>
<defs>
<linearGradient id="paint0_linear_457_3606" x1="20.7622" y1="35.4461" x2="17.5496" y2="40.0559" gradientUnits="userSpaceOnUse">
<stop stop-color="#D14242"/>
<stop offset="1" stop-color="#F18989"/>
</linearGradient>
<linearGradient id="paint1_linear_457_3606" x1="32.2385" y1="31.0093" x2="19.7814" y2="4.71467" gradientUnits="userSpaceOnUse">
<stop stop-color="#D14242"/>
<stop offset="1" stop-color="#F18989"/>
</linearGradient>
<linearGradient id="paint2_linear_457_3606" x1="8.72255" y1="26.8592" x2="37.7743" y2="26.859" gradientUnits="userSpaceOnUse">
<stop stop-color="white"/>
<stop offset="1" stop-color="white" stop-opacity="0"/>
</linearGradient>
<linearGradient id="paint3_linear_457_3606" x1="16.8866" y1="18.6949" x2="37.4987" y2="18.6949" gradientUnits="userSpaceOnUse">
<stop stop-color="white"/>
<stop offset="1" stop-color="white" stop-opacity="0"/>
</linearGradient>
<linearGradient id="paint4_linear_457_3606" x1="8.72255" y1="18.6949" x2="24.1654" y2="18.6949" gradientUnits="userSpaceOnUse">
<stop stop-color="white"/>
<stop offset="1" stop-color="white" stop-opacity="0"/>
</linearGradient>
<linearGradient id="paint5_linear_457_3606" x1="18.5512" y1="12.0021" x2="33.3333" y2="12.0021" gradientUnits="userSpaceOnUse">
<stop stop-color="white"/>
<stop offset="1" stop-color="white" stop-opacity="0"/>
</linearGradient>
<linearGradient id="paint6_linear_457_3606" x1="8.71921" y1="12.0021" x2="24.9987" y2="12.0021" gradientUnits="userSpaceOnUse">
<stop stop-color="white"/>
<stop offset="1" stop-color="white" stop-opacity="0"/>
</linearGradient>
<linearGradient id="paint7_linear_457_3606" x1="23.2974" y1="2.1131" x2="20.0848" y2="6.72293" gradientUnits="userSpaceOnUse">
<stop stop-color="#D14242"/>
<stop offset="1" stop-color="#F18989"/>
</linearGradient>
</defs>
</svg>
