<svg width="40" height="40" viewBox="0 0 40 40" fill="none" xmlns="http://www.w3.org/2000/svg">
<g id="Award 1">
<path id="Vector" d="M14.5002 38.7501C14.4868 38.7501 14.4733 38.7501 14.4599 38.7489C13.9997 38.7342 13.5847 38.4681 13.3802 38.0555L11.7493 34.7621L8.07989 34.9977C7.61663 35.0209 7.18084 34.8011 6.93792 34.4093C6.695 34.0187 6.68707 33.5243 6.91717 33.1251L10.6672 26.6249C10.973 26.0939 11.6193 25.857 12.1937 26.0817L19.3061 28.7819C19.6485 28.9112 19.917 29.1859 20.0397 29.5314C20.163 29.8756 20.1282 30.2577 19.9445 30.5751L15.5823 38.1251C15.3589 38.5133 14.9457 38.7501 14.5002 38.7501Z" fill="url(#paint0_linear_457_3626)"/>
<path id="Vector_2" d="M14.5002 38.7501C14.4868 38.7501 14.4733 38.7501 14.4599 38.7489C13.9997 38.7342 13.5847 38.4681 13.3802 38.0555L11.7493 34.7621L8.07989 34.9977C7.61663 35.0209 7.18084 34.8011 6.93792 34.4093C6.695 34.0187 6.68707 33.5243 6.91717 33.1251L10.6672 26.6249C10.973 26.0939 11.6193 25.857 12.1937 26.0817L19.3061 28.7819C19.6485 28.9112 19.917 29.1859 20.0397 29.5314C20.163 29.8756 20.1282 30.2577 19.9445 30.5751L15.5823 38.1251C15.3589 38.5133 14.9457 38.7501 14.5002 38.7501Z" fill="url(#paint1_linear_457_3626)"/>
<path id="Vector_3" d="M25.4999 38.7501C25.0544 38.7501 24.6412 38.5133 24.4178 38.1251L20.0556 30.5751C19.8719 30.2577 19.8371 29.8756 19.9604 29.5314C20.083 29.1859 20.3516 28.9112 20.694 28.7819L27.8064 26.0817C28.3796 25.857 29.0259 26.0939 29.3329 26.6249L33.0829 33.1251C33.313 33.5243 33.3051 34.0187 33.0622 34.4093C32.8193 34.8011 32.3865 35.0209 31.9202 34.9977L28.2508 34.7621L26.6199 38.0555C26.4154 38.4681 26.0004 38.7342 25.5402 38.7489C25.5268 38.7501 25.5133 38.7501 25.4999 38.7501Z" fill="url(#paint2_linear_457_3626)"/>
<path id="Vector_4" d="M25.4999 38.7501C25.0544 38.7501 24.6412 38.5133 24.4178 38.1251L20.0556 30.5751C19.8719 30.2577 19.8371 29.8756 19.9604 29.5314C20.083 29.1859 20.3516 28.9112 20.694 28.7819L27.8064 26.0817C28.3796 25.857 29.0259 26.0939 29.3329 26.6249L33.0829 33.1251C33.313 33.5243 33.3051 34.0187 33.0622 34.4093C32.8193 34.8011 32.3865 35.0209 31.9202 34.9977L28.2508 34.7621L26.6199 38.0555C26.4154 38.4681 26.0004 38.7342 25.5402 38.7489C25.5268 38.7501 25.5133 38.7501 25.4999 38.7501Z" fill="url(#paint3_linear_457_3626)"/>
<path id="Vector_5" d="M20 31.25C11.7291 31.25 5 24.5215 5 16.25C5 7.97852 11.7291 1.25 20 1.25C28.2709 1.25 35 7.97852 35 16.25C35 24.5215 28.2709 31.25 20 31.25Z" fill="url(#paint4_linear_457_3626)"/>
<path id="Vector_6" d="M20 26.25C14.4861 26.25 10 21.7639 10 16.25C10 10.7361 14.4861 6.25 20 6.25C25.5139 6.25 30 10.7361 30 16.25C30 21.7639 25.5139 26.25 20 26.25Z" fill="url(#paint5_linear_457_3626)"/>
<path id="Vector_7" d="M16.4288 21.875C16.162 21.875 15.8959 21.7896 15.6738 21.6211C15.2673 21.3135 15.0884 20.7886 15.2227 20.2966L16.1175 17.0154L14.0594 14.6619C13.7365 14.2932 13.659 13.7695 13.8616 13.3228C14.0643 12.876 14.5092 12.5891 14.9999 12.5891H17.7587L18.858 10.1172C19.0582 9.66553 19.5062 9.375 19.9999 9.375C20.4937 9.375 20.9417 9.66553 21.1425 10.1172L22.2405 12.5891H24.9999C25.4907 12.5891 25.9356 12.876 26.1382 13.3228C26.3409 13.7695 26.2634 14.2932 25.9405 14.6619L23.8824 17.0154L24.7778 20.2954C24.912 20.7886 24.7332 21.3135 24.3267 21.6211C23.9196 21.9287 23.3654 21.9604 22.929 21.6968L19.9999 19.9402L17.0721 21.6968C16.8731 21.8164 16.6509 21.875 16.4288 21.875Z" fill="url(#paint6_linear_457_3626)"/>
</g>
<defs>
<linearGradient id="paint0_linear_457_3626" x1="18.3378" y1="34.7997" x2="-3.49929" y2="23.9343" gradientUnits="userSpaceOnUse">
<stop stop-color="#D14242"/>
<stop offset="1" stop-color="#F18989"/>
</linearGradient>
<linearGradient id="paint1_linear_457_3626" x1="7.14137" y1="27.2708" x2="20.1125" y2="27.2788" gradientUnits="userSpaceOnUse">
<stop stop-color="white" stop-opacity="0.59"/>
<stop offset="1" stop-color="white" stop-opacity="0.15"/>
</linearGradient>
<linearGradient id="paint2_linear_457_3626" x1="31.4755" y1="34.7997" x2="9.63837" y2="23.9343" gradientUnits="userSpaceOnUse">
<stop stop-color="#D14242"/>
<stop offset="1" stop-color="#F18989"/>
</linearGradient>
<linearGradient id="paint3_linear_457_3626" x1="20.2791" y1="27.2708" x2="33.2502" y2="27.2788" gradientUnits="userSpaceOnUse">
<stop stop-color="white" stop-opacity="0.59"/>
<stop offset="1" stop-color="white" stop-opacity="0.15"/>
</linearGradient>
<linearGradient id="paint4_linear_457_3626" x1="31.0159" y1="28.6356" x2="15.1354" y2="1.81914" gradientUnits="userSpaceOnUse">
<stop stop-color="#D14242"/>
<stop offset="1" stop-color="#F18989"/>
</linearGradient>
<linearGradient id="paint5_linear_457_3626" x1="9.18683" y1="8.16818" x2="28.3812" y2="9.90728" gradientUnits="userSpaceOnUse">
<stop stop-color="white"/>
<stop offset="1" stop-color="#F2B0B0"/>
</linearGradient>
<linearGradient id="paint6_linear_457_3626" x1="26.2499" y1="16.5284" x2="22.0904" y2="7.90122" gradientUnits="userSpaceOnUse">
<stop stop-color="#D14242"/>
<stop offset="1" stop-color="#F18989"/>
</linearGradient>
</defs>
</svg>
