<svg width="40" height="40" viewBox="0 0 40 40" fill="none" xmlns="http://www.w3.org/2000/svg">
<g id="Icon">
<path id="Vector" d="M20.0004 8.01595C18.0539 6.14801 15.4112 5 12.5004 5C6.51723 5 1.66699 9.85025 1.66699 15.8333C1.66699 26.4471 13.2843 32.3084 18.0233 34.2578C19.2996 34.7828 20.7011 34.7828 21.9774 34.2578C26.7165 32.3083 38.3337 26.4471 38.3337 15.8333C38.3337 9.85025 33.4834 5 27.5004 5C24.5895 5 21.9468 6.14801 20.0004 8.01595Z" fill="url(#paint0_linear_457_3619)"/>
<path id="Vector_2" fill-rule="evenodd" clip-rule="evenodd" d="M19.9996 14.768L18.2045 13.1717C17.154 12.2374 15.7347 11.667 14.1663 11.667C10.9446 11.667 8.33301 14.0871 8.33301 17.0726C8.33301 20.6685 10.9996 23.4939 14.3305 25.5984C15.9443 26.618 17.5763 27.376 18.8146 27.8802C19.2776 28.0687 19.6803 28.2196 19.9996 28.3337C20.319 28.2196 20.7216 28.0687 21.1847 27.8802C22.423 27.376 24.055 26.618 25.6688 25.5984C28.9996 23.4939 31.6663 20.6685 31.6663 17.0726C31.6663 14.0871 29.0546 11.667 25.833 11.667C24.2645 11.667 22.8453 12.2374 21.7948 13.1717L19.9996 14.768Z" fill="url(#paint1_linear_457_3619)"/>
</g>
<defs>
<linearGradient id="paint0_linear_457_3619" x1="33.4642" y1="32.0676" x2="19.5182" y2="2.94614" gradientUnits="userSpaceOnUse">
<stop stop-color="#D14242"/>
<stop offset="1" stop-color="#F18989"/>
</linearGradient>
<linearGradient id="paint1_linear_457_3619" x1="11.3264" y1="13.3316" x2="20.8947" y2="34.3202" gradientUnits="userSpaceOnUse">
<stop stop-color="white"/>
<stop offset="1" stop-color="white" stop-opacity="0"/>
</linearGradient>
</defs>
</svg>
